<svg width="220" height="48" viewBox="0 0 220 48" fill="none" xmlns="http://www.w3.org/2000/svg" aria-label="Pentographer">
  <defs>
    <linearGradient id="ng-wm-dark" x1="24" y1="10" x2="24" y2="35.6" gradientUnits="userSpaceOnUse">
      <stop offset="0%" stop-color="#C8D8EE"/>
      <stop offset="100%" stop-color="#6A8DB8"/>
    </linearGradient>
  </defs>

  <!-- Mark (48×48, viewBox 0 0 240 240 scaled to 48px) -->
  <g transform="scale(0.2)">
    <rect width="240" height="240" rx="52" fill="#080E1A"/>
    <path d="M 120 178 L 164 88 C 167 72, 158 52, 148 50 L 130 50 L 120 62 L 110 50 L 92 50 C 82 52, 73 72, 76 88 Z" fill="url(#ng-wm-dark)" stroke="#8AAECC" stroke-width="1" stroke-linejoin="round"/>
    <line x1="120" y1="95" x2="120" y2="177" stroke="#080E1A" stroke-width="3"/>
    <path d="M 120 82 L 128 91 L 120 100 L 112 91 Z" fill="#080E1A"/>
    <circle cx="120" cy="169" r="3" fill="#22D3EE" opacity="0.85"/>
    <line x1="48" y1="88" x2="68" y2="88" stroke="#22D3EE" stroke-width="2.5" stroke-opacity="0.65" stroke-linecap="round"/>
    <line x1="172" y1="88" x2="192" y2="88" stroke="#22D3EE" stroke-width="2.5" stroke-opacity="0.65" stroke-linecap="round"/>
    <line x1="120" y1="32" x2="120" y2="46" stroke="#22D3EE" stroke-width="2" stroke-opacity="0.4" stroke-linecap="round"/>
  </g>

  <!-- Wordmark text -->
  <text x="60" y="33" font-family="Inter, system-ui, -apple-system, sans-serif" font-size="22" font-weight="700" letter-spacing="-0.5" fill="none">
    <tspan fill="#f1f5f9">Pento</tspan><tspan fill="#22D3EE">grapher</tspan>
  </text>
</svg>
